<svg version="1.1" xmlns="http://www.w3.org/2000/svg" xmlns:xlink="http://www.w3.org/1999/xlink" width="180.75926" height="140.17667" viewBox="0,0,180.75926,140.17667"><defs><linearGradient x1="279.89094" y1="177.06251" x2="279.89094" y2="188.68751" gradientUnits="userSpaceOnUse" id="color-1"><stop offset="0" stop-color="#ffb600"/><stop offset="1" stop-color="#ff7b00"/></linearGradient><linearGradient x1="278.89094" y1="167.4375" x2="278.89094" y2="177.68751" gradientUnits="userSpaceOnUse" id="color-2"><stop offset="0" stop-color="#ffb600"/><stop offset="1" stop-color="#ff7b00"/></linearGradient><linearGradient x1="289.00344" y1="167.55001" x2="289.00344" y2="186.75001" gradientUnits="userSpaceOnUse" id="color-3"><stop offset="0" stop-color="#ffb600"/><stop offset="1" stop-color="#ff7b00"/></linearGradient><linearGradient x1="295.91202" y1="160.90145" x2="295.91202" y2="203.55001" gradientUnits="userSpaceOnUse" id="color-4"><stop offset="0" stop-color="#929292"/><stop offset="1" stop-color="#434343"/></linearGradient><linearGradient x1="295.04229" y1="189.8372" x2="295.04229" y2="199.1872" gradientUnits="userSpaceOnUse" id="color-5"><stop offset="0" stop-color="#67ffda" stop-opacity="0"/><stop offset="1" stop-color="#67ffda"/></linearGradient></defs><g transform="translate(-260.75661,-159.3451)"><g stroke-miterlimit="10"><path d="" fill="none" stroke="#000000" stroke-width="1.28786" stroke-linecap="butt"/><path d="" fill="#00a735" stroke="#000000" stroke-width="1.28786" stroke-linecap="butt"/><path d="" fill="#ccf280" stroke="#000000" stroke-width="1.28786" stroke-linecap="butt"/><path d="" fill="#000000" stroke="#000000" stroke-width="1.28786" stroke-linecap="butt"/><path d="" fill="#000000" stroke="#000000" stroke-width="1.28786" stroke-linecap="butt"/><path d="" fill="#000000" stroke="#000000" stroke-width="1.28786" stroke-linecap="round"/><text transform="translate(260.93336,264.59501) scale(0.35351,0.35351)" font-size="40" xml:space="preserve" fill="#000000" stroke="none" stroke-width="1" stroke-linecap="butt" font-family="Sans Serif" font-weight="normal" text-anchor="start"><tspan x="0" dy="0">Sharkcap</tspan></text><text transform="translate(261.14207,278.92273) scale(0.32215,0.34048)" font-size="40" xml:space="preserve" fill="#000000" stroke="none" stroke-width="1" stroke-linecap="butt" font-family="Sans Serif" font-weight="normal" text-anchor="start"><tspan x="0" dy="0">Bites nearby zombies and </tspan><tspan x="0" dy="48px">when eaten charges at them!</tspan></text><g><g stroke="#000000" stroke-width="1.28786"><path d="M300.60344,171.55001c0,0 -2.07545,-3.225 -3.74572,-4.86597c-2.051,-2.01502 -7.65428,-6.33403 -7.65428,-6.33403l24,3.6z" fill="#929292" stroke-linecap="round"/><path d="M284.26594,185.18751l-4.75,3.5l-4,-11.625l5,1.375" fill="url(#color-1)" stroke-linecap="round"/><path d="M280.51594,177.68751c0,0 -1.57348,-3.69343 -2.58697,-5.15143c-1.29284,-1.85987 -4.53803,-5.09857 -4.53803,-5.09857l11,1.875z" fill="url(#color-2)" stroke-linecap="round"/><path d="M279.40344,177.15001c0,-5.30193 4.29807,-9.6 9.6,-9.6c5.30193,0 9.6,4.29807 9.6,9.6c0,5.30193 -4.29807,9.6 -9.6,9.6c-5.30193,0 -9.6,-4.29807 -9.6,-9.6z" fill="url(#color-3)" stroke-linecap="butt"/><path d="M286.01594,173.31251l3.25,2.5" fill="none" stroke-linecap="round"/><path d="M292.51594,172.93751l-2.75,-2.25" fill="none" stroke-linecap="round"/><path d="M295.01594,173.43751l-1.5,2.25l-2.125,-0.125l0.25,1.5l-4.5,0.875" fill="none" stroke-linecap="round"/><path d="M272.63677,199.88334l-0.03333,-18.53333l9.14616,4.45744l34.76911,-24.906c0,0 8.77464,24.05214 -1.45551,33.5689c-10.23015,9.51676 -33.65829,4.01257 -33.65829,4.01257z" fill="url(#color-4)" stroke-linecap="round"/><path d="M319.64094,183.31251c0,0 -2.66444,13.78527 -16.25,6.25c-5.9426,-3.29608 -6.375,-11.25 -6.375,-11.25c0,0 10.34007,2.45855 14.5557,2.07244c7.83877,-0.71796 7.8193,-7.19744 7.8193,-7.19744z" fill="#ffffff" stroke-linecap="round"/><path d="M303.51594,180.06251l-0.125,9.375" fill="none" stroke-linecap="round"/><path d="M308.39094,180.81251l2.125,10.5" fill="none" stroke-linecap="round"/><path d="M314.76594,179.93751l2.875,7.25" fill="none" stroke-linecap="round"/></g><path d="M270.29056,199.1872v-9.35h49.50353v9.35z" fill="url(#color-5)" stroke="none" stroke-width="0" stroke-linecap="butt"/><path d="M270.25916,201.80002v-2.83333h49.5v2.83333z" fill="#67ffda" stroke="none" stroke-width="0" stroke-linecap="butt"/></g></g></g></svg>