<svg version="1.1" xmlns="http://www.w3.org/2000/svg" xmlns:xlink="http://www.w3.org/1999/xlink" width="64.5894" height="86.86717" viewBox="0,0,64.5894,86.86717"><defs><linearGradient x1="320.00001" y1="141.05598" x2="320.00001" y2="217.70185" gradientUnits="userSpaceOnUse" id="color-1"><stop offset="0" stop-color="#6b6b6b"/><stop offset="1" stop-color="#1ae490"/></linearGradient><linearGradient x1="320.00001" y1="136.93922" x2="320.00001" y2="221.81866" gradientUnits="userSpaceOnUse" id="color-2"><stop offset="0" stop-color="#969696"/><stop offset="1" stop-color="#8e8e8e"/></linearGradient></defs><g transform="translate(-287.70531,-136.43933)"><g stroke-miterlimit="10"><path d="M292.43653,217.70185v-76.64577h55.12694v76.64577z" fill="url(#color-1)" stroke="#000000" stroke-width="1" stroke-linecap="butt"/><g stroke="#000000" stroke-width="1.28786"><path d="M303.16474,204.02321c-3.27061,0 -5.92197,-2.65136 -5.92197,-5.92197v-13.5522c0,-3.27061 2.65136,-5.92197 5.92197,-5.92197h27.78771c3.27061,0 5.92197,2.65136 5.92197,5.92197v13.5522c0,3.27061 -2.65136,5.92197 -5.92197,5.92197z" fill="#fffab9" stroke-linecap="butt"/><path d="M315.96117,188.96521c-13.35692,0 -24.18483,-7.38471 -24.18483,-16.49421v0c0,-9.1095 10.82791,-16.49421 24.18483,-16.49421h1.51155c13.35692,0 24.18483,7.38471 24.18483,16.49421v0c0,9.1095 -10.82791,16.49421 -24.18483,16.49421z" fill="#b100ff" stroke-linecap="butt"/><path d="M326.4548,195.17628c0.52957,1.94177 0.27021,3.7037 -0.57932,3.93539c-0.84952,0.23169 -1.9675,-1.1546 -2.49708,-3.09637c-0.52957,-1.94177 -0.27021,-3.7037 0.57932,-3.93539c0.84952,-0.23169 1.9675,1.1546 2.49708,3.09637z" fill="#000000" stroke-linecap="butt"/><path d="M334.9384,192.29316c0,1.88689 -0.63735,3.41652 -1.42355,3.41652c-0.7862,0 -1.42355,-1.52963 -1.42355,-3.41652c0,-1.88689 0.63735,-3.41652 1.42355,-3.41652c0.7862,0 1.42355,1.52963 1.42355,3.41652z" fill="#000000" stroke-linecap="butt"/><path d="M319.9057,199.8095c0,0 0.67586,-1.20198 1.93098,-0.77685c1.06821,0.36181 5.12983,3.16842 5.12983,3.16842" fill="none" stroke-linecap="round"/><path d="M327.0804,192.7487l-8.65519,-1.02496" fill="none" stroke-linecap="round"/><path d="M331.18022,191.38208l3.18875,-3.75817" fill="none" stroke-linecap="round"/><path d="M348.22366,175.25478c0,4.6861 -3.4159,8.48495 -7.62962,8.48495c-4.21372,0 -7.62962,-3.79884 -7.62962,-8.48495c0,-4.6861 3.4159,-8.48495 7.62962,-8.48495c4.21372,0 7.62962,3.79884 7.62962,8.48495z" fill="#b100ff" stroke-linecap="butt"/><path d="M345.84721,175.86448c0,2.44126 -1.23196,4.4203 -2.75167,4.4203c-1.51971,0 -2.75167,-1.97903 -2.75167,-4.4203c0,-2.44126 1.23196,-4.4203 2.75167,-4.4203c1.51971,0 2.75167,1.97903 2.75167,4.4203z" fill="#000000" stroke-linecap="butt"/></g><path d="M288.20532,221.81866v-84.87933h63.5894v84.87933zM343.93742,188.06057v-40.89885l-46.49635,-0.0425l-0.25601,62.19979l26.35087,-0.20973z" fill="url(#color-2)" stroke="#000000" stroke-width="1" stroke-linecap="butt"/><path d="M322.42292,137.16846l-33.86,33.64619v-33.64619z" fill="#3aff00" stroke="#000000" stroke-width="1" stroke-linecap="butt"/><text transform="translate(327.82702,217.16063) scale(0.49167,0.49167)" font-size="40" xml:space="preserve" fill="#000000" stroke="none" stroke-width="1" stroke-linecap="butt" font-family="Sans Serif" font-weight="normal" text-anchor="start"><tspan x="0" dy="0">75</tspan></text></g></g></svg>