<svg version="1.1" xmlns="http://www.w3.org/2000/svg" xmlns:xlink="http://www.w3.org/1999/xlink" width="94.13649" height="64.62207" viewBox="0,0,94.13649,64.62207"><defs><linearGradient x1="287.09556" y1="150.46915" x2="287.09556" y2="207.68394" gradientUnits="userSpaceOnUse" id="color-1"><stop offset="0" stop-color="#6b6b6b"/><stop offset="1" stop-color="#1ae490"/></linearGradient><linearGradient x1="293.28909" y1="182.95898" x2="293.28909" y2="204.83568" gradientUnits="userSpaceOnUse" id="color-2"><stop offset="0" stop-color="#f0ffee"/><stop offset="1" stop-color="#9dff00"/></linearGradient><linearGradient x1="292.90447" y1="182.95898" x2="292.90447" y2="206.19765" gradientUnits="userSpaceOnUse" id="color-3"><stop offset="0" stop-color="#ffffff"/><stop offset="1" stop-color="#000000"/></linearGradient><linearGradient x1="287.09558" y1="147.39604" x2="287.09558" y2="210.75707" gradientUnits="userSpaceOnUse" id="color-4"><stop offset="0" stop-color="#969696"/><stop offset="1" stop-color="#8e8e8e"/></linearGradient></defs><g transform="translate(-240.027,-146.89605)"><g stroke-miterlimit="10"><path d="M246.72434,207.68394v-57.2148h80.74191v57.2148z" fill="url(#color-1)" stroke="#000000" stroke-width="1" stroke-linecap="butt"/><g><path d="M290.90447,182.95898l6.5,11.92673l-2.75,-0.24591l0.86539,10.87687l-6.34616,-14.83038l3.23077,0.26483l-2.875,-6.76258" fill="url(#color-2)" stroke="url(#color-3)" stroke-width="1.28786" stroke-linecap="round"/><path d="M301.84678,197.983c2.2611,-0.81167 1.07693,5.69231 1.07693,5.69231c0,0 0.18365,-2.07624 -2.15385,-1.23077c-2.33749,0.84548 -5.07692,3.84616 -5.07692,3.84616c0,0 3.89274,-7.49601 6.15384,-8.30769z" fill="#a5ff1e" stroke="#000000" stroke-width="1.28786" stroke-linecap="round"/><path d="M289.46629,196.95622c2.66039,1.51713 4.80848,8.8842 4.80848,8.8842c0,0 -2.72405,-3.79264 -5.47276,-5.36722c-2.74871,-1.57458 -3.79928,-0.11893 -3.79928,-0.11893c0,0 1.80317,-4.91519 4.46356,-3.39805z" fill="#a5ff1e" stroke="#000000" stroke-width="1.28786" stroke-linecap="round"/><path d="M295.30833,207.36764c0,0 -2.7377,-0.59929 -3.84616,-1.61539c-1.10847,-1.0161 -1.69231,-3.46154 -1.69231,-3.46154c0,0 2.01347,0.88415 2.8685,1.66792c0.97526,0.89399 2.66996,3.409 2.66996,3.409z" fill="#a5ff1e" stroke="#000000" stroke-width="1.28786" stroke-linecap="round"/><path d="M297.29312,205.55396c0.85519,-0.65347 2.65168,-0.75777 2.65168,-0.75777c0,0 -0.87588,1.30775 -1.53553,1.81181c-0.75242,0.57494 -2.73742,1.45326 -2.73742,1.45326c0,0 0.76608,-1.85383 1.62127,-2.5073z" fill="#a5ff1e" stroke="#000000" stroke-width="1.28786" stroke-linecap="round"/><path d="M296.35178,208.05084c0,0 1.60012,-1.20963 2.66854,-1.33939c1.06842,-0.12977 2.66985,0.69102 2.66985,0.69102c0,0 -1.41793,0.68326 -2.24207,0.78336c-0.94003,0.11416 -3.09632,-0.135 -3.09632,-0.135z" fill="#a5ff1e" stroke="#000000" stroke-width="1.28786" stroke-linecap="round"/><path d="M296.12197,208.29895c0,0 -2.79676,0.32316 -4.01601,0.17509c-1.06893,-0.12983 -2.90802,-1.01603 -2.90802,-1.01603c0,0 2.0771,-1.06459 3.46287,-0.89628c1.38577,0.16831 3.46116,1.73722 3.46116,1.73722z" fill="#a5ff1e" stroke="#000000" stroke-width="1.28786" stroke-linecap="round"/><path d="M298.07755,208.75225c0,0.5098 -1.01597,0.92308 -2.26923,0.92308c-1.25326,0 -2.26923,-0.41327 -2.26923,-0.92308c0,-0.5098 1.01597,-0.92308 2.26923,-0.92308c1.25326,0 2.26923,0.41328 2.26923,0.92308z" fill="#a5ff1e" stroke="#000000" stroke-width="1.28786" stroke-linecap="butt"/><path d="M288.76856,170.96241c0.06792,1.69798 -0.59968,3.10336 -1.49112,3.13903c-0.89144,0.03566 -1.66915,-1.31192 -1.73707,-3.0099c-0.06792,-1.69798 0.59968,-3.10336 1.49112,-3.13903c0.89144,-0.03566 1.66915,1.31192 1.73707,3.0099z" fill="#1a8d5b" stroke="#26ff94" stroke-width="3" stroke-linecap="butt"/><path d="M284.86041,169.05019c5.16049,6.43644 7.6847,12.98449 5.63796,14.62548c-2.04674,1.641 -8.42781,-2.24648 -13.5883,-8.68292c-5.16049,-6.43644 -7.21659,-8.43788 -4.25334,-11.24087c3.85208,-3.64375 7.04319,-1.13814 12.20368,5.2983z" fill="#ffffff" stroke="#26ff94" stroke-width="3" stroke-linecap="butt"/><path d="M283.46087,172.80856c0.06792,1.69798 -0.59967,3.10336 -1.49111,3.13903c-0.89144,0.03566 -1.66915,-1.31192 -1.73707,-3.0099c-0.06792,-1.69798 0.59968,-3.10336 1.49112,-3.13903c0.89144,-0.03566 1.66915,1.31192 1.73707,3.0099z" fill="#1a8d5b" stroke="#26ff94" stroke-width="3" stroke-linecap="butt"/><path d="M288.76856,170.96241c0.06792,1.69798 -0.59968,3.10336 -1.49112,3.13903c-0.89144,0.03566 -1.66915,-1.31192 -1.73707,-3.0099c-0.06792,-1.69798 0.59968,-3.10336 1.49112,-3.13903c0.89144,-0.03566 1.66915,1.31192 1.73707,3.0099z" fill="#1a8d5b" stroke="#26ff94" stroke-width="3" stroke-linecap="butt"/><path d="M274.69293,161.7962c0,0 2.81031,2.25349 0.5,4.26923c-2.0446,1.78391 -3.73077,-1.03846 -3.73077,-1.03846l-3.15384,-6.15385z" fill="#26ff94" stroke="#26ff94" stroke-width="3" stroke-linecap="round"/><path d="M277.15447,169.1039c0,0 -0.36309,-1.54206 0.84616,-2.07692c1.20925,-0.53486 3.07692,-0.07693 3.07692,-0.07693" fill="none" stroke="#26ff94" stroke-width="3" stroke-linecap="round"/><path d="M288.76856,170.96241c0.06792,1.69798 -0.59968,3.10336 -1.49112,3.13903c-0.89144,0.03566 -1.66915,-1.31192 -1.73707,-3.0099c-0.06792,-1.69798 0.59968,-3.10336 1.49112,-3.13903c0.89144,-0.03566 1.66915,1.31192 1.73707,3.0099z" fill="#1a8d5b" stroke="#ffffff" stroke-width="2" stroke-linecap="butt"/><path d="M284.86041,169.05019c5.16049,6.43644 7.6847,12.98449 5.63796,14.62548c-2.04674,1.641 -8.42781,-2.24648 -13.5883,-8.68292c-5.16049,-6.43644 -7.21659,-8.43788 -4.25334,-11.24087c3.85208,-3.64375 7.04319,-1.13814 12.20368,5.2983z" fill="#ffffff" stroke="#ffffff" stroke-width="1.28786" stroke-linecap="butt"/><path d="M283.46087,172.80856c0.06792,1.69798 -0.59968,3.10337 -1.49112,3.13903c-0.89144,0.03566 -1.66915,-1.31192 -1.73707,-3.0099c-0.06792,-1.69798 0.59968,-3.10337 1.49112,-3.13903c0.89144,-0.03566 1.66915,1.31192 1.73707,3.0099z" fill="#1a8d5b" stroke="none" stroke-width="0" stroke-linecap="butt"/><path d="M288.76856,170.96241c0.06792,1.69798 -0.59967,3.10336 -1.49111,3.13903c-0.89144,0.03566 -1.66915,-1.31192 -1.73707,-3.0099c-0.06792,-1.69798 0.59968,-3.10336 1.49112,-3.13903c0.89144,-0.03566 1.66915,1.31192 1.73707,3.0099z" fill="#1a8d5b" stroke="none" stroke-width="0" stroke-linecap="butt"/><path d="M274.69294,161.7962c0,0 2.81031,2.25349 0.5,4.26923c-2.0446,1.78391 -3.73077,-1.03846 -3.73077,-1.03846l-3.15385,-6.15385z" fill="#26ff94" stroke="#ffffff" stroke-width="1.28786" stroke-linecap="round"/><path d="M277.15448,169.10389c0,0 -0.3631,-1.54206 0.84615,-2.07692c1.20924,-0.53486 3.07692,-0.07692 3.07692,-0.07692" fill="none" stroke="#188d5a" stroke-width="1.28786" stroke-linecap="round"/><path d="M283.9237,167.02697l1.46154,-2.92308" fill="none" stroke="#188d5a" stroke-width="1.28786" stroke-linecap="round"/></g><path d="M240.527,210.75707v-63.36102h93.13649v63.36102zM322.15542,184.97527v-29.94834l-68.10109,-0.03172l-0.37497,46.43111l51.39848,-0.15657z" fill="url(#color-4)" stroke="#000000" stroke-width="1" stroke-linecap="butt"/><path d="M275.51282,147.56713l-34.4617,30.21975v-30.21975z" fill="#3aff00" stroke="#000000" stroke-width="1" stroke-linecap="butt"/><text transform="translate(299.53195,205.69062) scale(0.4859,0.4662)" font-size="40" xml:space="preserve" fill="#000000" stroke="none" stroke-width="1" stroke-linecap="butt" font-family="Sans Serif" font-weight="normal" text-anchor="start"><tspan x="0" dy="0">175</tspan></text></g></g></svg>