<svg version="1.1" xmlns="http://www.w3.org/2000/svg" xmlns:xlink="http://www.w3.org/1999/xlink" width="67.58415" height="67.58415" viewBox="0,0,67.58415,67.58415"><defs><linearGradient x1="302.16641" y1="195.55273" x2="319.76641" y2="195.55273" gradientUnits="userSpaceOnUse" id="color-1"><stop offset="0" stop-color="#047531"/><stop offset="1" stop-color="#0d8e38"/></linearGradient><linearGradient x1="319.93784" y1="195.23844" x2="337.53784" y2="195.23844" gradientUnits="userSpaceOnUse" id="color-2"><stop offset="0" stop-color="#047531"/><stop offset="1" stop-color="#0d8e38"/></linearGradient><linearGradient x1="320.41581" y1="170.29551" x2="309.25263" y2="183.11673" gradientUnits="userSpaceOnUse" id="color-3"><stop offset="0" stop-color="#106254"/><stop offset="1" stop-color="#158270"/></linearGradient><linearGradient x1="319.14228" y1="168.97633" x2="331.36256" y2="182.19242" gradientUnits="userSpaceOnUse" id="color-4"><stop offset="0" stop-color="#106254"/><stop offset="1" stop-color="#158270"/></linearGradient></defs><g transform="translate(-286.20793,-146.20793)"><g stroke-miterlimit="10"><path d="M286.20793,180c0,-18.66285 15.12923,-33.79207 33.79207,-33.79207c18.66285,0 33.79207,15.12923 33.79207,33.79207c0,18.66285 -15.12923,33.79207 -33.79207,33.79207c-18.66285,0 -33.79207,-15.12923 -33.79207,-33.79207z" fill="#548421" stroke="none" stroke-width="0" stroke-linecap="butt"/><path d="M319.76641,193.15273l-1.8,4.6l-1,-2l-5.2,2.6l-0.4,-1.6l-9.2,2.4l2.4,-5.2l-2.4,0.6l9.05665,-12.24161z" fill="url(#color-1)" stroke="#000000" stroke-width="1.28786" stroke-linecap="round"/><path d="M288.70111,155.3359v0z" fill="#548421" stroke="none" stroke-width="0" stroke-linecap="butt"/><path d="M329.06685,181.76829l8.47097,12.47015l-2.4,-0.6l2.4,5.2l-9.2,-2.4l-0.4,1.6l-5.2,-2.6l-1,2l-1.8,-4.6z" fill="url(#color-2)" stroke="#000000" stroke-width="1.28786" stroke-linecap="round"/><path d="M325.45247,185.89646l7.84251,9.35626" fill="#00ff5b" stroke="#000000" stroke-width="1.28786" stroke-linecap="round"/><path d="M320.03753,192.50695c0,0 -8.88107,-9.1004 -12.30524,-12.8927c-2.79034,-3.09033 -6.73026,-8.18928 -6.73026,-8.18928l8.62887,-10.51963l-3.30666,9.58468l2.1013,-2.41341l1.67485,7.82271l2.72416,-1.60591l1.85949,6.39236l2.23785,-0.43822z" fill="url(#color-3)" stroke="#000000" stroke-width="1.28786" stroke-linecap="round"/><path d="M320.64285,192.10442l2.50948,-13.48861l2.24994,0.37115l1.71187,-7.57558l2.72668,2.65428l-2.10105,-11.40463l5.71386,5.88487l-3.59164,-9.48156l8.9394,10.25704c0,0 -1.55809,3.24575 -3.64434,5.86331c-3.34763,4.20018 -14.51422,16.91973 -14.51422,16.91973z" fill="url(#color-4)" stroke="#000000" stroke-width="1.28786" stroke-linecap="round"/><path d="M306.5664,195.96701l7.71387,-8.35638" fill="#00ff5b" stroke="#000000" stroke-width="1.28786" stroke-linecap="round"/></g></g></svg>